<svg xmlns="http://www.w3.org/2000/svg" width="1200" height="560" viewBox="0 0 1200 560" role="img" aria-labelledby="title desc">
  <title id="title">Naive loops can make error more coherent</title>
  <desc id="desc">Early misunderstanding can become later context.</desc>
  <defs>
    <filter id="shadow" x="-15%" y="-15%" width="130%" height="130%">
      <feDropShadow dx="0" dy="6" stdDeviation="10" flood-color="#2c2118" flood-opacity="0.08"/>
    </filter>
    <marker id="arrow" viewBox="0 0 10 10" refX="8" refY="5" markerWidth="7" markerHeight="7" orient="auto-start-reverse">
      <path d="M0,0 L10,5 L0,10 Z" fill="#8d8378"/>
    </marker>
    <pattern id="dots" width="30" height="30" patternUnits="userSpaceOnUse">
      <circle cx="3" cy="3" r="1" fill="#e8dfd3" opacity="0.6"/>
    </pattern>
  </defs>
  <rect width="1200" height="560" rx="28" fill="#faf9f6"/>
  <rect x="20" y="20" width="1160" height="520" rx="24" fill="url(#dots)" opacity="0.4"/>

  <text x="60" y="70" font-family="Inter, 'Noto Sans SC', 'PingFang SC', 'Microsoft YaHei', sans-serif" font-size="32" font-weight="760" fill="#211b15">Naive loops can make error more coherent</text>
  <text x="60" y="102" font-family="Inter, 'Noto Sans SC', 'PingFang SC', 'Microsoft YaHei', sans-serif" font-size="16" font-weight="500" fill="#6d665d">Early misunderstanding can become later context.</text>

  <!-- Round 1 -->
  <rect x="70" y="104" width="140" height="32" rx="16" fill="#fff1e9" stroke="#d66a36" stroke-opacity="0.35"/>
  <text x="140" y="126" text-anchor="middle" font-family="Inter, 'Noto Sans SC', 'PingFang SC', 'Microsoft YaHei', sans-serif" font-size="15" font-weight="760" fill="#d66a36">Round 1</text>
  <g filter="url(#shadow)">
    <rect x="70" y="145" width="140" height="85" rx="18" fill="#ffffff" stroke="#d9d0c5"/>
    <rect x="70" y="145" width="7" height="85" rx="3.5" fill="#d66a36"/>
    <text x="98" y="188" font-family="Inter, 'Noto Sans SC', 'PingFang SC', 'Microsoft YaHei', sans-serif" font-size="19" font-weight="760" fill="#211b15">Misread goal</text>
  </g>
  <path d="M210,188 L260,218" fill="none" stroke="#d66a36" stroke-width="2.5" stroke-linecap="round" marker-end="url(#arrow)"/>

  <!-- Round 2 -->
  <rect x="260" y="144" width="140" height="32" rx="16" fill="#fff1e9" stroke="#d66a36" stroke-opacity="0.35"/>
  <text x="330" y="166" text-anchor="middle" font-family="Inter, 'Noto Sans SC', 'PingFang SC', 'Microsoft YaHei', sans-serif" font-size="15" font-weight="760" fill="#d66a36">Round 2</text>
  <g filter="url(#shadow)">
    <rect x="260" y="185" width="140" height="85" rx="18" fill="#ffffff" stroke="#d9d0c5"/>
    <rect x="260" y="185" width="7" height="85" rx="3.5" fill="#d66a36"/>
    <text x="288" y="228" font-family="Inter, 'Noto Sans SC', 'PingFang SC', 'Microsoft YaHei', sans-serif" font-size="19" font-weight="760" fill="#211b15">Optimize mistake</text>
  </g>
  <path d="M400,228 L450,258" fill="none" stroke="#d66a36" stroke-width="2.5" stroke-linecap="round" marker-end="url(#arrow)"/>

  <!-- Round 3 -->
  <rect x="450" y="184" width="140" height="32" rx="16" fill="#fff6df" stroke="#a67027" stroke-opacity="0.35"/>
  <text x="520" y="206" text-anchor="middle" font-family="Inter, 'Noto Sans SC', 'PingFang SC', 'Microsoft YaHei', sans-serif" font-size="15" font-weight="760" fill="#a67027">Round 3</text>
  <g filter="url(#shadow)">
    <rect x="450" y="225" width="140" height="85" rx="18" fill="#ffffff" stroke="#d9d0c5"/>
    <rect x="450" y="225" width="7" height="85" rx="3.5" fill="#a67027"/>
    <text x="478" y="268" font-family="Inter, 'Noto Sans SC', 'PingFang SC', 'Microsoft YaHei', sans-serif" font-size="19" font-weight="760" fill="#211b15">Treat as fact</text>
  </g>
  <path d="M590,268 L640,298" fill="none" stroke="#a67027" stroke-width="2.5" stroke-linecap="round" marker-end="url(#arrow)"/>

  <!-- Round 4 -->
  <rect x="640" y="224" width="140" height="32" rx="16" fill="#f0edff" stroke="#806eff" stroke-opacity="0.35"/>
  <text x="710" y="246" text-anchor="middle" font-family="Inter, 'Noto Sans SC', 'PingFang SC', 'Microsoft YaHei', sans-serif" font-size="15" font-weight="760" fill="#806eff">Round 4</text>
  <g filter="url(#shadow)">
    <rect x="640" y="265" width="140" height="85" rx="18" fill="#ffffff" stroke="#d9d0c5"/>
    <rect x="640" y="265" width="7" height="85" rx="3.5" fill="#806eff"/>
    <text x="668" y="308" font-family="Inter, 'Noto Sans SC', 'PingFang SC', 'Microsoft YaHei', sans-serif" font-size="19" font-weight="760" fill="#211b15">Polish direction</text>
  </g>
  <path d="M780,308 L830,338" fill="none" stroke="#806eff" stroke-width="2.5" stroke-linecap="round" marker-end="url(#arrow)"/>

  <!-- Final -->
  <rect x="830" y="264" width="140" height="32" rx="16" fill="#fff0ec" stroke="#b84a37" stroke-opacity="0.35"/>
  <text x="900" y="286" text-anchor="middle" font-family="Inter, 'Noto Sans SC', 'PingFang SC', 'Microsoft YaHei', sans-serif" font-size="15" font-weight="760" fill="#b84a37">Final</text>
  <g filter="url(#shadow)">
    <rect x="830" y="305" width="140" height="85" rx="18" fill="#ffffff" stroke="#d9d0c5"/>
    <rect x="830" y="305" width="7" height="85" rx="3.5" fill="#b84a37"/>
    <text x="858" y="348" font-family="Inter, 'Noto Sans SC', 'PingFang SC', 'Microsoft YaHei', sans-serif" font-size="19" font-weight="760" fill="#211b15">Coherent but wrong</text>
  </g>

  <text x="600" y="480" text-anchor="middle" font-family="Inter, 'Noto Sans SC', 'PingFang SC', 'Microsoft YaHei', sans-serif" font-size="22" font-weight="760" fill="#b84a37">More rounds can strengthen the wrong story.</text>
</svg>
