<svg width="1280" height="760" viewBox="0 0 1280 760" fill="none" xmlns="http://www.w3.org/2000/svg">
  <defs>
    <linearGradient id="bg" x1="80" y1="60" x2="1200" y2="700" gradientUnits="userSpaceOnUse">
      <stop stop-color="#FFF7ED"/>
      <stop offset="1" stop-color="#F3F7F2"/>
    </linearGradient>
    <linearGradient id="panel" x1="200" y1="140" x2="1050" y2="620" gradientUnits="userSpaceOnUse">
      <stop stop-color="#FFFFFF"/>
      <stop offset="1" stop-color="#FFFDF8"/>
    </linearGradient>
    <linearGradient id="accent" x1="0" y1="0" x2="240" y2="0" gradientUnits="userSpaceOnUse">
      <stop stop-color="#D66A36"/>
      <stop offset="1" stop-color="#0D7C66"/>
    </linearGradient>
    <filter id="shadow" x="120" y="90" width="1040" height="560" filterUnits="userSpaceOnUse" color-interpolation-filters="sRGB">
      <feFlood flood-opacity="0" result="BackgroundImageFix"/>
      <feColorMatrix in="SourceAlpha" type="matrix" values="0 0 0 0 0 0 0 0 0 0 0 0 0 0 0 0 0 0 127 0" result="hardAlpha"/>
      <feOffset dy="18"/>
      <feGaussianBlur stdDeviation="20"/>
      <feColorMatrix type="matrix" values="0 0 0 0 0.192157 0 0 0 0 0.133333 0 0 0 0 0.0823529 0 0 0 0.12 0"/>
      <feBlend mode="normal" in2="BackgroundImageFix" result="effect1_dropShadow_0_1"/>
      <feBlend mode="normal" in="SourceGraphic" in2="effect1_dropShadow_0_1" result="shape"/>
    </filter>
  </defs>

  <rect width="1280" height="760" rx="36" fill="url(#bg)"/>
  <circle cx="190" cy="130" r="110" fill="#F7DFC7"/>
  <circle cx="1090" cy="130" r="150" fill="#E4F0EA"/>
  <circle cx="1130" cy="650" r="120" fill="#F2E7D8"/>

  <g filter="url(#shadow)">
    <rect x="150" y="120" width="980" height="500" rx="28" fill="url(#panel)"/>
  </g>

  <rect x="210" y="172" width="198" height="34" rx="17" fill="#F6E3D3"/>
  <text x="236" y="194" fill="#D66A36" font-family="ui-sans-serif, -apple-system, BlinkMacSystemFont, 'Segoe UI', sans-serif" font-size="18" font-weight="700">CLI-first local loops</text>

  <text x="210" y="258" fill="#1E1813" font-family="Georgia, 'Times New Roman', serif" font-size="64" font-weight="700">Loopora</text>
  <text x="210" y="302" fill="#6E6256" font-family="ui-sans-serif, -apple-system, BlinkMacSystemFont, 'Segoe UI', sans-serif" font-size="24">Markdown spec in, live loop orchestration out.</text>

  <g>
    <rect x="210" y="360" width="250" height="164" rx="22" fill="#201915"/>
    <text x="238" y="394" fill="#FFF8EF" font-family="'SFMono-Regular', ui-monospace, Menlo, monospace" font-size="16">loopora run \</text>
    <text x="238" y="424" fill="#D7F0E8" font-family="'SFMono-Regular', ui-monospace, Menlo, monospace" font-size="16">  --spec ./spec.md \</text>
    <text x="238" y="454" fill="#D7F0E8" font-family="'SFMono-Regular', ui-monospace, Menlo, monospace" font-size="16">  --workdir ./demo \</text>
    <text x="238" y="484" fill="#D7F0E8" font-family="'SFMono-Regular', ui-monospace, Menlo, monospace" font-size="16">  --model gpt-5.4</text>
    <rect x="238" y="502" width="104" height="10" rx="5" fill="#0D7C66"/>
  </g>

  <g>
    <rect x="498" y="236" width="580" height="318" rx="24" fill="#FFFDF8" stroke="#E8DDCF"/>
    <rect x="530" y="268" width="516" height="18" rx="9" fill="#F1E9DF"/>
    <rect x="530" y="316" width="516" height="20" rx="10" fill="#F3EEE4"/>
    <rect x="530" y="316" width="278" height="20" rx="10" fill="url(#accent)"/>
    <text x="530" y="214" fill="#1E1813" font-family="ui-sans-serif, -apple-system, BlinkMacSystemFont, 'Segoe UI', sans-serif" font-size="22" font-weight="700">Web console</text>
    <text x="530" y="359" fill="#6E6256" font-family="ui-sans-serif, -apple-system, BlinkMacSystemFont, 'Segoe UI', sans-serif" font-size="16">Current stage</text>
    <text x="911" y="359" fill="#0D7C66" font-family="ui-sans-serif, -apple-system, BlinkMacSystemFont, 'Segoe UI', sans-serif" font-size="16" font-weight="700">Verifier</text>

    <rect x="530" y="382" width="94" height="44" rx="16" fill="#F4E3D4"/>
    <rect x="638" y="382" width="94" height="44" rx="16" fill="#E1F0EB"/>
    <rect x="746" y="382" width="94" height="44" rx="16" fill="#E1F0EB"/>
    <rect x="854" y="382" width="94" height="44" rx="16" fill="#FFF2E8" stroke="#D66A36" stroke-width="2"/>
    <rect x="962" y="382" width="84" height="44" rx="16" fill="#F7F1E8"/>

    <rect x="530" y="452" width="230" height="72" rx="18" fill="#F8F4EC"/>
    <rect x="772" y="452" width="274" height="72" rx="18" fill="#201915"/>
    <text x="554" y="482" fill="#6E6256" font-family="ui-sans-serif, -apple-system, BlinkMacSystemFont, 'Segoe UI', sans-serif" font-size="14">Latest output</text>
    <text x="554" y="509" fill="#1E1813" font-family="ui-sans-serif, -apple-system, BlinkMacSystemFont, 'Segoe UI', sans-serif" font-size="18" font-weight="700">2 checks still failing</text>
    <text x="796" y="484" fill="#FFF8EF" font-family="'SFMono-Regular', ui-monospace, Menlo, monospace" font-size="14">[18:24:05] tester | npm test</text>
    <text x="796" y="508" fill="#D7F0E8" font-family="'SFMono-Regular', ui-monospace, Menlo, monospace" font-size="14">[18:24:07] verifier | composite=0.78</text>
  </g>

  <g>
    <text x="210" y="582" fill="#6E6256" font-family="ui-sans-serif, -apple-system, BlinkMacSystemFont, 'Segoe UI', sans-serif" font-size="18">Spec → Checks → Generator → Tester → Verifier → Challenger</text>
  </g>
</svg>
