<svg xmlns="http://www.w3.org/2000/svg" width="1000" height="520" viewBox="0 0 1000 520" role="img" aria-labelledby="title desc">
  <title id="title">Loopora 第一次使用路径</title>
  <desc id="desc">图示第一次使用 Loopora 时从当前 Coding Agent 发起，先生成候选 Loop，在 Web 中预览和调整，再回到 Agent 运行，证据写入同一份本地记录。</desc>
  <defs>
    <marker id="arrow-blue" markerWidth="12" markerHeight="12" refX="9" refY="6" orient="auto">
      <path d="M2 2 L10 6 L2 10 Z" fill="#2563eb"/>
    </marker>
    <marker id="arrow-green" markerWidth="12" markerHeight="12" refX="9" refY="6" orient="auto">
      <path d="M2 2 L10 6 L2 10 Z" fill="#059669"/>
    </marker>
    <style>
      .canvas { fill: #f8fafc; }
      .title { font-family: Inter, Arial, sans-serif; font-size: 30px; font-weight: 700; fill: #172033; }
      .sub { font-family: Inter, Arial, sans-serif; font-size: 17px; font-weight: 400; fill: #5b6475; }
      .lane { fill: #ffffff; stroke: #cbd5e1; stroke-width: 1.5; }
      .agent { fill: #eff6ff; stroke: #bfdbfe; stroke-width: 1.5; }
      .cmd { fill: #2563eb; }
      .web { fill: #ecfdf5; stroke: #86efac; stroke-width: 1.5; }
      .record { fill: #f1f5f9; stroke: #cbd5e1; stroke-width: 1.5; }
      .h { font-family: Inter, Arial, sans-serif; font-size: 20px; font-weight: 700; fill: #172033; }
      .body { font-family: Inter, Arial, sans-serif; font-size: 15px; font-weight: 400; fill: #475569; }
      .small { font-family: Inter, Arial, sans-serif; font-size: 14px; font-weight: 600; fill: #1e3a8a; }
      .cmdText { font-family: Inter, Arial, sans-serif; font-size: 19px; font-weight: 700; fill: #ffffff; }
      .green { fill: #065f46; }
      .shadow { filter: drop-shadow(0 10px 18px rgb(15 23 42 / 0.10)); }
    </style>
  </defs>

  <rect width="1000" height="520" rx="28" class="canvas"/>
  <text x="500" y="58" text-anchor="middle" class="title">从 Agent 进入，从 Web 看证据</text>
  <text x="500" y="91" text-anchor="middle" class="sub">不换工作方式，只给长期任务增加一个可审查的运行面</text>

  <g class="shadow">
    <rect x="78" y="140" width="844" height="130" rx="20" class="lane"/>
    <text x="116" y="178" class="h">当前 Agent</text>
    <text x="116" y="209" class="body">描述任务目标和关键判断</text>

    <rect x="336" y="166" width="170" height="52" rx="16" class="cmd"/>
    <text x="421" y="199" text-anchor="middle" class="cmdText">/loopora-gen</text>
    <text x="421" y="239" text-anchor="middle" class="small">生成候选 Loop</text>

    <rect x="680" y="166" width="174" height="52" rx="16" class="cmd"/>
    <text x="767" y="199" text-anchor="middle" class="cmdText">/loopora-loop</text>
    <text x="767" y="239" text-anchor="middle" class="small">按 Loop 多轮执行</text>
  </g>

  <path d="M270 192 H314" fill="none" stroke="#2563eb" stroke-width="3"/>
  <polygon points="328,192 312,183 312,201" fill="#2563eb"/>
  <path d="M520 192 H658" fill="none" stroke="#2563eb" stroke-width="3"/>
  <polygon points="672,192 656,183 656,201" fill="#2563eb"/>

  <g class="shadow">
    <rect x="346" y="316" width="248" height="82" rx="18" class="web"/>
    <text x="470" y="350" text-anchor="middle" class="h green">Web 预览</text>
    <text x="470" y="378" text-anchor="middle" class="body">确认、调整或补充判断</text>

    <rect x="632" y="316" width="248" height="82" rx="18" class="record"/>
    <text x="756" y="350" text-anchor="middle" class="h">同一份本地记录</text>
    <text x="756" y="378" text-anchor="middle" class="body">证据、缺口、阻断项、裁决</text>
  </g>

  <path d="M421 258 V302" fill="none" stroke="#059669" stroke-width="3"/>
  <polygon points="421,316 412,300 430,300" fill="#059669"/>
  <path d="M594 357 H610" fill="none" stroke="#059669" stroke-width="3"/>
  <polygon points="624,357 608,348 608,366" fill="#059669"/>
  <path d="M767 258 V302" fill="none" stroke="#059669" stroke-width="3"/>
  <polygon points="767,316 758,300 776,300" fill="#059669"/>

  <text x="500" y="460" text-anchor="middle" class="body">Agent 里启动的 Loop，可以在 Web 中继续查看；Web 中看到的证据，来自同一轮运行。</text>
</svg>
