<svg xmlns="http://www.w3.org/2000/svg" width="1000" height="560" viewBox="0 0 1000 560" role="img" aria-labelledby="title desc">
  <title id="title">Loopora first-use path</title>
  <desc id="desc">A diagram showing that users start by generating and running a Loop inside their Coding Agent while the Web UI observes and manages evidence.</desc>
  <defs>
    <marker id="arrow" markerWidth="12" markerHeight="12" refX="9" refY="6" orient="auto">
      <path d="M2 2 L10 6 L2 10 Z" fill="#2563eb"/>
    </marker>
    <marker id="arrow-green" markerWidth="12" markerHeight="12" refX="9" refY="6" orient="auto">
      <path d="M2 2 L10 6 L2 10 Z" fill="#059669"/>
    </marker>
    <filter id="shadow" x="-8%" y="-8%" width="116%" height="124%">
      <feDropShadow dx="0" dy="8" stdDeviation="9" flood-color="#0f172a" flood-opacity="0.10"/>
    </filter>
  </defs>
  <rect width="1000" height="560" rx="28" fill="#f6f8fb"/>
  <text x="500" y="58" text-anchor="middle" font-family="Inter, Arial, sans-serif" font-size="30" font-weight="700" fill="#172033">First use: start in the Agent, inspect in Web</text>
  <text x="500" y="92" text-anchor="middle" font-family="Inter, Arial, sans-serif" font-size="17" fill="#5b6475">You keep the same working surface; long tasks gain a visible Loop</text>

  <rect x="56" y="158" width="176" height="144" rx="18" fill="#ffffff" stroke="#cbd5e1" filter="url(#shadow)"/>
  <circle cx="144" cy="191" r="18" fill="#dbeafe"/>
  <text x="144" y="198" text-anchor="middle" font-family="Inter, Arial, sans-serif" font-size="20" font-weight="700" fill="#2563eb">1</text>
  <text x="144" y="235" text-anchor="middle" font-family="Inter, Arial, sans-serif" font-size="19" font-weight="700" fill="#172033">Current Agent</text>
  <text x="144" y="266" text-anchor="middle" font-family="Inter, Arial, sans-serif" font-size="15" fill="#475569">Describe the task</text>

  <rect x="292" y="136" width="176" height="188" rx="18" fill="#eff6ff" stroke="#2563eb" stroke-width="2.5" filter="url(#shadow)"/>
  <circle cx="380" cy="172" r="18" fill="#2563eb"/>
  <text x="380" y="179" text-anchor="middle" font-family="Inter, Arial, sans-serif" font-size="20" font-weight="700" fill="#ffffff">2</text>
  <text x="380" y="216" text-anchor="middle" font-family="Inter, Arial, sans-serif" font-size="20" font-weight="700" fill="#172033">/loopora-gen</text>
  <text x="380" y="252" text-anchor="middle" font-family="Inter, Arial, sans-serif" font-size="15" fill="#1e3a8a">Create a candidate Loop</text>
  <text x="380" y="281" text-anchor="middle" font-family="Inter, Arial, sans-serif" font-size="15" fill="#1e3a8a">No run starts yet</text>

  <rect x="532" y="158" width="176" height="144" rx="18" fill="#ffffff" stroke="#cbd5e1" filter="url(#shadow)"/>
  <circle cx="620" cy="191" r="18" fill="#dbeafe"/>
  <text x="620" y="198" text-anchor="middle" font-family="Inter, Arial, sans-serif" font-size="20" font-weight="700" fill="#2563eb">3</text>
  <text x="620" y="235" text-anchor="middle" font-family="Inter, Arial, sans-serif" font-size="19" font-weight="700" fill="#172033">Web Preview</text>
  <text x="620" y="266" text-anchor="middle" font-family="Inter, Arial, sans-serif" font-size="15" fill="#475569">Confirm or adjust</text>

  <rect x="768" y="136" width="176" height="188" rx="18" fill="#eff6ff" stroke="#2563eb" stroke-width="2.5" filter="url(#shadow)"/>
  <circle cx="856" cy="172" r="18" fill="#2563eb"/>
  <text x="856" y="179" text-anchor="middle" font-family="Inter, Arial, sans-serif" font-size="20" font-weight="700" fill="#ffffff">4</text>
  <text x="856" y="216" text-anchor="middle" font-family="Inter, Arial, sans-serif" font-size="20" font-weight="700" fill="#172033">/loopora-loop</text>
  <text x="856" y="252" text-anchor="middle" font-family="Inter, Arial, sans-serif" font-size="15" fill="#1e3a8a">Agent advances in Loop</text>
  <text x="856" y="281" text-anchor="middle" font-family="Inter, Arial, sans-serif" font-size="15" fill="#1e3a8a">Evidence flows back</text>

  <path d="M238 230 C256 230 268 230 286 230" stroke="#2563eb" stroke-width="3" fill="none" marker-end="url(#arrow)"/>
  <path d="M474 230 C492 230 508 230 526 230" stroke="#2563eb" stroke-width="3" fill="none" marker-end="url(#arrow)"/>
  <path d="M714 230 C732 230 744 230 762 230" stroke="#2563eb" stroke-width="3" fill="none" marker-end="url(#arrow)"/>

  <rect x="160" y="394" width="680" height="82" rx="20" fill="#172033" filter="url(#shadow)"/>
  <text x="500" y="427" text-anchor="middle" font-family="Inter, Arial, sans-serif" font-size="21" font-weight="700" fill="#ffffff">One local source of record</text>
  <text x="500" y="458" text-anchor="middle" font-family="Inter, Arial, sans-serif" font-size="16" fill="#dbeafe">Loops started in the Agent can be inspected in Web: evidence, gaps, blockers, and verdicts</text>
  <path d="M856 332 C856 372 748 392 694 386" stroke="#059669" stroke-width="3" fill="none" marker-end="url(#arrow-green)"/>
  <path d="M620 308 C620 350 590 372 564 386" stroke="#059669" stroke-width="3" fill="none" marker-end="url(#arrow-green)"/>
</svg>
