<svg xmlns="http://www.w3.org/2000/svg" width="1000" height="560" viewBox="0 0 1000 560" role="img" aria-labelledby="title desc">
  <title id="title">Where Loopora sits in a long Agent task</title>
  <desc id="desc">A diagram showing that Loopora does not turn judgment into a longer document; it places judgment in a running structure outside the Agent, so evidence from each round constrains the next round.</desc>
  <defs>
    <marker id="arrow-blue" markerWidth="12" markerHeight="12" refX="9" refY="6" orient="auto">
      <path d="M2 2 L10 6 L2 10 Z" fill="#2563eb"/>
    </marker>
    <marker id="arrow-green" markerWidth="12" markerHeight="12" refX="9" refY="6" orient="auto">
      <path d="M2 2 L10 6 L2 10 Z" fill="#059669"/>
    </marker>
    <style>
      .canvas { fill: #f8fafc; }
      .title { font-family: Inter, Arial, sans-serif; font-size: 30px; font-weight: 700; fill: #172033; }
      .sub { font-family: Inter, Arial, sans-serif; font-size: 17px; font-weight: 400; fill: #5b6475; }
      .card { fill: #ffffff; stroke: #cbd5e1; stroke-width: 1.5; }
      .focus { fill: #eff6ff; stroke: #2563eb; stroke-width: 2.5; }
      .round { fill: #ecfdf5; stroke: #86efac; stroke-width: 1.5; }
      .h { font-family: Inter, Arial, sans-serif; font-size: 20px; font-weight: 700; fill: #172033; }
      .body { font-family: Inter, Arial, sans-serif; font-size: 15px; font-weight: 400; fill: #475569; }
      .label { font-family: Inter, Arial, sans-serif; font-size: 15px; font-weight: 600; fill: #1e3a8a; }
      .green { fill: #065f46; }
      .shadow { filter: drop-shadow(0 10px 18px rgb(15 23 42 / 0.10)); }
    </style>
  </defs>

  <rect width="1000" height="560" rx="28" class="canvas"/>
  <text x="500" y="58" text-anchor="middle" class="title">Not a longer PRD, but an external run structure</text>
  <text x="500" y="91" text-anchor="middle" class="sub">It saves repeated application of judgment, not judgment itself</text>

  <g class="shadow">
    <rect x="74" y="150" width="230" height="230" rx="18" class="card"/>
    <text x="114" y="196" class="h">Human judgment</text>
    <circle cx="102" cy="229" r="5" fill="#2563eb"/>
    <text x="120" y="234" class="body">what is not done</text>
    <circle cx="102" cy="266" r="5" fill="#059669"/>
    <text x="120" y="271" class="body">what evidence counts</text>
    <circle cx="102" cy="303" r="5" fill="#dc2626"/>
    <text x="120" y="308" class="body">which risks block</text>
    <circle cx="102" cy="340" r="5" fill="#2563eb"/>
    <text x="120" y="345" class="body">when to close</text>
  </g>

  <path d="M320 265 H376" fill="none" stroke="#2563eb" stroke-width="3"/>
  <polygon points="390,265 374,256 374,274" fill="#2563eb"/>

  <g class="shadow">
    <rect x="400" y="118" width="240" height="294" rx="22" class="focus"/>
    <text x="520" y="166" text-anchor="middle" class="h">Loopora structure</text>
    <text x="520" y="194" text-anchor="middle" class="body">outside the Agent</text>
    <rect x="440" y="228" width="160" height="34" rx="17" fill="#ffffff" stroke="#bfdbfe"/>
    <text x="520" y="250" text-anchor="middle" class="label">task contract</text>
    <rect x="440" y="276" width="160" height="34" rx="17" fill="#ffffff" stroke="#bfdbfe"/>
    <text x="520" y="298" text-anchor="middle" class="label">evidence path</text>
    <rect x="440" y="324" width="160" height="34" rx="17" fill="#ffffff" stroke="#bfdbfe"/>
    <text x="520" y="346" text-anchor="middle" class="label">verdict rule</text>
  </g>

  <path d="M656 265 H694" fill="none" stroke="#2563eb" stroke-width="3"/>
  <polygon points="708,265 692,256 692,274" fill="#2563eb"/>

  <g class="shadow">
    <rect x="718" y="150" width="208" height="230" rx="18" class="card"/>
    <text x="822" y="196" text-anchor="middle" class="h">Agent rounds</text>
    <rect x="752" y="228" width="140" height="34" rx="17" class="round"/>
    <text x="822" y="250" text-anchor="middle" class="label green">work + evidence</text>
    <rect x="752" y="276" width="140" height="34" rx="17" class="round"/>
    <text x="822" y="298" text-anchor="middle" class="label green">close key gaps</text>
    <rect x="752" y="324" width="140" height="34" rx="17" class="round"/>
    <text x="822" y="346" text-anchor="middle" class="label green">reach verdict</text>
  </g>

  <path d="M822 400 C786 472 610 470 556 432" fill="none" stroke="#059669" stroke-width="3"/>
  <polygon points="544,424 562,424 552,440" fill="#059669"/>
  <text x="690" y="472" text-anchor="middle" class="label green">evidence returns; the next round is constrained again</text>

  <text x="500" y="520" text-anchor="middle" class="body">Long tasks return to the same judgment and evidence, not only to the Agent's own summary.</text>
</svg>
