<svg xmlns="http://www.w3.org/2000/svg" width="1000" height="620" viewBox="0 0 1000 620" role="img" aria-labelledby="title desc">
  <title id="title">Where Loopora sits in a long Agent task</title>
  <desc id="desc">The diagram shows human judgment becoming a running structure outside the Agent, so every later round returns with evidence.</desc>
  <defs>
    <marker id="arrow" markerWidth="12" markerHeight="12" refX="9" refY="6" orient="auto">
      <path d="M2 2 L10 6 L2 10 Z" fill="#2563eb"/>
    </marker>
    <marker id="arrow-orange" markerWidth="12" markerHeight="12" refX="9" refY="6" orient="auto">
      <path d="M2 2 L10 6 L2 10 Z" fill="#d97706"/>
    </marker>
    <filter id="shadow" x="-10%" y="-10%" width="120%" height="130%">
      <feDropShadow dx="0" dy="10" stdDeviation="10" flood-color="#0f172a" flood-opacity="0.12"/>
    </filter>
  </defs>
  <rect width="1000" height="620" rx="28" fill="#f6f8fb"/>
  <text x="500" y="58" text-anchor="middle" font-family="Inter, Arial, sans-serif" font-size="30" font-weight="700" fill="#172033">Not a longer PRD, but a structure outside the Agent</text>
  <text x="500" y="93" text-anchor="middle" font-family="Inter, Arial, sans-serif" font-size="17" fill="#5b6475">It saves repeated use of judgment, not judgment itself</text>

  <rect x="54" y="150" width="246" height="260" rx="18" fill="#ffffff" stroke="#cbd5e1" filter="url(#shadow)"/>
  <circle cx="96" cy="195" r="24" fill="#dbeafe"/>
  <text x="96" y="203" text-anchor="middle" font-family="Inter, Arial, sans-serif" font-size="22" font-weight="700" fill="#2563eb">H</text>
  <text x="132" y="192" font-family="Inter, Arial, sans-serif" font-size="22" font-weight="700" fill="#172033">Human judgment</text>
  <text x="82" y="245" font-family="Inter, Arial, sans-serif" font-size="16" fill="#334155">what to reject</text>
  <text x="82" y="286" font-family="Inter, Arial, sans-serif" font-size="16" fill="#334155">what evidence counts</text>
  <text x="82" y="327" font-family="Inter, Arial, sans-serif" font-size="16" fill="#334155">which risks block</text>
  <text x="82" y="368" font-family="Inter, Arial, sans-serif" font-size="16" fill="#334155">when to close</text>
  <circle cx="66" cy="239" r="5" fill="#2563eb"/>
  <circle cx="66" cy="280" r="5" fill="#2563eb"/>
  <circle cx="66" cy="321" r="5" fill="#dc2626"/>
  <circle cx="66" cy="362" r="5" fill="#059669"/>

  <rect x="378" y="128" width="244" height="304" rx="20" fill="#eff6ff" stroke="#2563eb" stroke-width="2.5" filter="url(#shadow)"/>
  <text x="500" y="176" text-anchor="middle" font-family="Inter, Arial, sans-serif" font-size="23" font-weight="700" fill="#172033">Loopora structure</text>
  <text x="500" y="209" text-anchor="middle" font-family="Inter, Arial, sans-serif" font-size="16" fill="#475569">outside the Agent</text>
  <rect x="414" y="245" width="172" height="36" rx="18" fill="#ffffff" stroke="#bfdbfe"/>
  <text x="500" y="269" text-anchor="middle" font-family="Inter, Arial, sans-serif" font-size="16" font-weight="600" fill="#1e3a8a">task contract</text>
  <rect x="414" y="296" width="172" height="36" rx="18" fill="#ffffff" stroke="#bfdbfe"/>
  <text x="500" y="320" text-anchor="middle" font-family="Inter, Arial, sans-serif" font-size="16" font-weight="600" fill="#1e3a8a">evidence path</text>
  <rect x="414" y="347" width="172" height="36" rx="18" fill="#ffffff" stroke="#bfdbfe"/>
  <text x="500" y="371" text-anchor="middle" font-family="Inter, Arial, sans-serif" font-size="16" font-weight="600" fill="#1e3a8a">decision rule</text>

  <rect x="700" y="150" width="246" height="260" rx="18" fill="#ffffff" stroke="#cbd5e1" filter="url(#shadow)"/>
  <text x="823" y="192" text-anchor="middle" font-family="Inter, Arial, sans-serif" font-size="22" font-weight="700" fill="#172033">Agent rounds</text>
  <rect x="728" y="232" width="190" height="44" rx="12" fill="#ecfdf5" stroke="#a7f3d0"/>
  <text x="823" y="260" text-anchor="middle" font-family="Inter, Arial, sans-serif" font-size="16" font-weight="600" fill="#065f46">Round 1: work + evidence</text>
  <rect x="728" y="293" width="190" height="44" rx="12" fill="#ecfdf5" stroke="#a7f3d0"/>
  <text x="823" y="321" text-anchor="middle" font-family="Inter, Arial, sans-serif" font-size="16" font-weight="600" fill="#065f46">Round 2: close gaps</text>
  <rect x="728" y="354" width="190" height="44" rx="12" fill="#ecfdf5" stroke="#a7f3d0"/>
  <text x="823" y="382" text-anchor="middle" font-family="Inter, Arial, sans-serif" font-size="16" font-weight="600" fill="#065f46">Round N: decidable</text>

  <path d="M306 280 C332 280 348 280 372 280" fill="none" stroke="#2563eb" stroke-width="3" marker-end="url(#arrow)"/>
  <path d="M628 280 C654 280 670 280 694 280" fill="none" stroke="#2563eb" stroke-width="3" marker-end="url(#arrow)"/>
  <path d="M823 432 C820 504 634 516 526 450" fill="none" stroke="#d97706" stroke-width="3" stroke-dasharray="8 7" marker-end="url(#arrow-orange)"/>
  <text x="700" y="515" text-anchor="middle" font-family="Inter, Arial, sans-serif" font-size="16" font-weight="600" fill="#9a3412">evidence returns; the next round is constrained again</text>

  <rect x="202" y="535" width="596" height="58" rx="18" fill="#172033"/>
  <text x="500" y="570" text-anchor="middle" font-family="Inter, Arial, sans-serif" font-size="18" font-weight="600" fill="#ffffff">Long tasks keep returning to human judgment, not only Agent summaries</text>
</svg>
